<svg xmlns="http://www.w3.org/2000/svg" width="256" height="256"><path fill-opacity=".016" d="M0 128.004v128.004l128.25-.254 128.25-.254.254-127.75L257.008 0H0v128.004m.485.496c0 70.4.119 99.053.265 63.672.146-35.38.146-92.98 0-128C.604 29.153.485 58.1.485 128.5" fill="#1976D2" fill-rule="evenodd"/><path fill-opacity=".139" d="M120.539 38.072c-17.262 2.632-29.597 8.903-42.072 21.388-7.23 7.236-9.877 10.737-13.264 17.54C59.479 88.5 57 98.84 57 111.213c0 9.264 1.95 21.51 3.932 24.69 1.891 3.032 27.325-2.827 47.899-11.035 16.955-6.764 26.214-8.852 39.291-8.861 15.425-.01 26.521 3.087 53.007 14.795 1.325.586 2.871-10.017 2.871-19.691 0-12.18-2.478-22.534-8.162-34.111-5.722-11.655-18.607-24.653-30.551-30.822-13.574-7.009-31.11-10.186-44.748-8.106m13.803 82.407c-8.551 1.552-14.214 3.367-28.842 9.245-35.132 14.116-70.565 15.529-96.904 3.865-8.262-3.659-8.225-2.429.052 1.706 14.925 7.457 27.231 10.138 46.352 10.096 20.784-.046 32.3-2.51 58.018-12.415 17.384-6.695 26.343-8.362 41.416-7.708 14.177.616 22.429 2.786 42.127 11.082 20.282 8.543 24.879 9.89 33.939 9.95 6.733.045 8.911-.383 13.75-2.696 3.162-1.512 5.75-3.146 5.75-3.631 0-.484-2.363.219-5.25 1.563-10.707 4.985-20.2 3.248-45.254-8.281-28.949-13.322-44.904-16.45-65.154-12.776m-3.486 11.492c-4.204 1.064-13.983 4.43-21.732 7.48-24.962 9.827-42.586 13.238-63.393 12.269-13.277-.619-26.744-3.551-37.231-8.106-6.255-2.717-4.927-.972 1.981 2.602 21.307 11.026 53.884 12.879 83.153 4.731 3.923-1.093 12.698-4.161 19.5-6.819 17.834-6.969 25.184-8.585 38.866-8.543 14.946.046 23.761 2.242 47.287 11.778 10.017 4.061 20.626 7.948 23.574 8.637 7.842 1.833 17.538.855 23.988-2.419 6.619-3.36 6.267-4.433-.444-1.358-3.776 1.73-6.632 2.23-12.405 2.17-8.533-.089-14.736-2.169-36.532-12.248-19.971-9.237-28.111-11.367-44.968-11.772-11.348-.272-15.448.031-21.644 1.598m8.644 8.744c-6.561.907-15.626 3.691-28.5 8.753-23.737 9.332-38.823 12.54-58.881 12.519-15.066-.016-26.925-2.201-39.75-7.326-9.965-3.982-8.598-2.176 2.198 2.905 25.989 12.231 59.946 12.003 93.499-.628 4.639-1.746 11.336-4.271 14.882-5.612 9.797-3.702 19.11-5.326 30.552-5.326 15.524 0 26.336 2.733 48.765 12.325 5.92 2.532 13.784 5.536 17.474 6.676 11.078 3.422 23.59 2.557 31.129-2.151 3.838-2.397 2.234-2.943-2.118-.72-5.887 3.006-15.727 3.597-23.325 1.401-3.259-.941-12-4.532-19.425-7.979-19.193-8.911-26.242-11.551-36.487-13.665-8.352-1.724-22.132-2.262-30.013-1.172m-91.725 34.844c-3.491 1.895-4.775 4.355-4.775 9.153 0 5.118 2.207 7.997 7.149 9.328 5.248 1.413 11.813.382 11.957-1.878.059-.914.173-2.562.254-3.662.28-3.788-1.244-5.5-4.895-5.5-3.599 0-4.905 2.234-1.965 3.362 2.154.826 1.925 4.638-.277 4.638-3.39 0-6.223-2.914-6.223-6.402 0-4.191 2.628-6.598 7.206-6.598 3.425 0 6.471-1.989 5.119-3.342-1.225-1.225-10.807-.588-13.55.901m17.892-.892c-.367.366-.667 4.105-.667 8.309 0 7.784.9 10.188 4.25 11.353 1.581.55 1.75-.25 1.75-8.289 0-6.755-.378-9.275-1.571-10.469-1.702-1.702-2.72-1.946-3.762-.904m11.256 2.256c-3.81 3.81-4.123 10.584-.673 14.555 4.431 5.1 14.312 4.203 17.297-1.569C97.642 181.991 93.097 174 84.5 174c-3.81 0-5.184.53-7.577 2.923m20.684-1.341c-.334.87-.607 4.695-.607 8.5 0 5.626.38 7.298 2.036 8.954 2.917 2.917 3.962 1.646 3.981-4.845l.017-5.691 2.927 4.972c3.653 6.207 5.668 7.797 8.177 6.454 1.585-.848 1.862-2.224 1.862-9.261 0-8.166-.867-10.665-3.7-10.665-.914 0-1.306 1.708-1.319 5.75l-.019 5.75-3.121-5c-1.717-2.75-3.621-5.331-4.231-5.735-1.945-1.287-5.375-.82-6.003.817m26.168-.023c-3.538 1.92-4.775 4.36-4.775 9.421 0 2.994.645 4.756 2.374 6.485 2.827 2.827 9.892 4.152 13.931 2.612 2.601-.991 2.783-1.416 2.5-5.823l-.305-4.754-4.489-.319-4.49-.319 2.24 2.383c4.05 4.312 2.164 7.391-2.875 4.694-2.857-1.529-4.088-5.402-2.691-8.467 1.145-2.514 2.638-3.179 8.296-3.698 1.916-.175 3.111-.903 3.324-2.024.283-1.493-.45-1.744-4.992-1.71-2.928.022-6.549.706-8.048 1.519m21.482-.309c.26.688 1.738 5.148 3.285 9.911 2.72 8.378 2.921 8.674 6.129 9.049 3.087.36 3.42.106 4.798-3.661a6008.15 6008.15 0 013.505-9.549c2.583-7.016 2.564-7.195-.724-6.816-2.406.276-3.016 1.11-4.877 6.669-1.17 3.494-2.353 5.969-2.628 5.5-.275-.469-1.243-3.441-2.15-6.603-1.55-5.398-1.84-5.75-4.73-5.75-2.048 0-2.921.419-2.608 1.25M167 182.943c0 8.035.22 9.098 2.163 10.459 1.19.833 2.54 1.282 3 .997.46-.284.837-3.99.837-8.236 0-7.978-1.568-12.163-4.557-12.163-1.15 0-1.443 1.817-1.443 8.943m9.667-8.276c-.367.366-.667 4.391-.667 8.943 0 7.447.225 8.435 2.25 9.86l2.25 1.583.5-6.492.5-6.492 3.425 5.926c3.868 6.691 5.549 7.791 8.22 5.374 1.466-1.327 1.855-3.129 1.855-8.59 0-7.745-1.136-10.779-4.035-10.779-1.699 0-1.97.709-1.999 5.25l-.033 5.25-3.208-5.25c-2.54-4.158-3.746-5.25-5.799-5.25-1.426 0-2.893.3-3.259.667m23.33 8.842c-1.762 5.289-3.045 9.771-2.851 9.959.45.435 3.008.805 4.496.65.627-.065 1.424-1.243 1.769-2.618.856-3.412 5.257-3.504 6.537-.137 1.051 2.764 4.907 4.178 5.708 2.092.293-.764-.782-5.341-2.389-10.172-2.9-8.718-2.948-8.785-6.494-9.087l-3.572-.305-3.204 9.618M81.2 179.2c-2.938 2.938-.523 11.8 3.216 11.8 3.659 0 5.837-6.791 3.549-11.066-1.157-2.162-4.928-2.571-6.765-.734m124.511 2.797c-.722 2.76.088 4.604 1.432 3.26.536-.536.557-1.893.05-3.264l-.868-2.346-.614 2.35M23.834 210.053c.228 4.806.706 6.936 1.5 6.675 2.446-.802 1.853-13.726-.629-13.73-.858-.002-1.109 2.031-.871 7.055m168.67-6.046c.343.554-.115 1.29-1.017 1.636-4.057 1.557-3.722 9.513.456 10.839 3.349 1.063 5.994-.395 7.574-4.177 2.292-5.486 1.994-7.471-1.008-6.718-1.773.445-2.668.162-3.107-.981-.339-.883-1.269-1.606-2.068-1.606-.799 0-1.172.453-.83 1.007m44.246 1.073c-2.61 1.521-2.431 9.892.261 12.198 2.246 1.922 3.989 2.238 3.989.722 0-.55.675-1 1.5-1s1.5-.675 1.5-1.5c0-1-1-1.5-3-1.5-1.65 0-3-.45-3-1s1.387-1 3.083-1c3.909 0 3.432-2.245-.665-3.132l-2.918-.631 3.25-.119c3.642-.132 4.235-1.521 1.316-3.083-2.364-1.265-3.078-1.259-5.316.045M11 206.417c0 2.713 4.008 10.747 5.169 10.36 1.051-.35 2.101-2.7 4.256-9.527 1.167-3.698-2.052-2.747-3.387 1l-1.157 3.25-1.392-3.25C13.07 204.939 11 203.851 11 206.417m25 .083c0 .825.675 1.5 1.5 1.5 1.115 0 1.5 1.176 1.5 4.583 0 5.902 2.368 5.556 2.807-.411.209-2.826.773-4.172 1.75-4.172.794 0 1.443-.675 1.443-1.5 0-1.111-1.167-1.5-4.5-1.5s-4.5.389-4.5 1.5m12 3.217c0 2.686.54 5.423 1.2 6.083 2.55 2.55 7.8.752 7.8-2.671 0-.809.73-2.278 1.621-3.263 2.102-2.322 1.18-4.633-1.789-4.483-2.006.101-2.375.711-2.639 4.367-.418 5.773-2.961 5.831-3.386.078-.454-6.162-2.807-6.255-2.807-.111m15.58-2.805c-2.505 2.768-1.695 7.181 1.661 9.056 2.904 1.622 5.402.878 6.826-2.035 3.15-6.44 3.287-6.979 2.071-8.195-.962-.962-1.398-.935-2.055.127-.581.941-1.04 1.014-1.517.242-1.082-1.751-5.091-1.29-6.986.805m13.826-.526c-.293.762-.391 3.314-.219 5.672.38 5.205 2.811 6.737 2.817 1.775l.003-3.333 2.027 3.323c2.061 3.382 4.568 3.869 4.341.844-.069-.917-.181-3.467-.25-5.667-.149-4.758-2.117-5.447-2.142-.75l-.017 3.25-2.081-3.25c-2.237-3.493-3.632-4.073-4.479-1.864m14.817.171c-5.277 3.696-.546 11.998 5.604 9.835 3.852-1.355 3.797-5.763-.077-6.208-3.131-.361-3.973 2.314-1 3.177 1.011.294.694.43-.75.324-1.951-.144-2.5-.734-2.5-2.685 0-2.206.382-2.47 3.25-2.246 3.41.266 4.06-.544 2.05-2.554-1.631-1.631-3.916-1.507-6.577.357M111 211.06v6.061l3.673-.311c4.602-.389 5.817-2.81 1.41-2.81-1.695 0-3.03-.338-2.965-.75.066-.412.066-2.437 0-4.5-.198-6.288-2.118-4.194-2.118 2.31m11.985-.524c-2.412 5.944-2.11 7.792.838 5.125 2.279-2.063 4.063-2.122 4.815-.161.498 1.298 3.362 2.225 3.362 1.089 0-2.021-4.559-11.589-5.523-11.589-.684 0-2.256 2.491-3.492 5.536M135 211c0 4.489.34 6.053 1.25 5.75.792-.264 1.25-2.372 1.25-5.75s-.458-5.486-1.25-5.75c-.91-.303-1.25 1.261-1.25 5.75m13 .083c0 4.436.338 5.964 1.25 5.641.688-.243 1.171-1.743 1.075-3.333-.155-2.567-.043-2.685 1-1.054 3.047 4.764 3.525 5.178 4.668 4.053 1.487-1.465.878-10.612-.743-11.145-.832-.274-1.251.703-1.254 2.922l-.003 3.333-1.982-3.25c-2.924-4.796-4.011-4.028-4.011 2.833M162 207c-1.1 1.1-2 2.9-2 4 0 2.381 3.357 6 5.566 6 2.976 0 5.434-2.051 5.434-4.535 0-1.947-.513-2.465-2.441-2.465-3.126 0-4.118 1.576-1.83 2.908 1.614.94 1.581 1.034-.372 1.062-2.344.033-3.629-2.098-2.71-4.494.437-1.138 1.44-1.363 3.969-.888 3.764.706 4.129.3 1.813-2.017-2.141-2.14-5.027-1.973-7.429.429m12.667-1.333c-1.292 1.292-.652 8.206.904 9.762 3.06 3.059 8.429.83 8.429-3.5 0-1.061.45-1.929 1-1.929s1-1.069 1-2.375c0-1.853-.538-2.375-2.449-2.375-2.153 0-2.485.497-2.75 4.125-.425 5.822-3.185 5.727-3.608-.125-.292-4.031-1.031-5.079-2.526-3.583M204 211c0 4.489.34 6.053 1.25 5.75.792-.264 1.25-2.372 1.25-5.75s-.458-5.486-1.25-5.75c-.91-.303-1.25 1.261-1.25 5.75m12.459-3.305c1.333 5.309 3.528 9.476 4.777 9.065 1.458-.479 5.342-10.515 4.424-11.433-.997-.998-3.66 1.763-3.66 3.795 0 2.843-1.421 2.25-2.694-1.122-1.448-3.836-3.796-4.088-2.847-.305M229 211c0 4.489.34 6.053 1.25 5.75.792-.264 1.25-2.372 1.25-5.75s-.458-5.486-1.25-5.75c-.91-.303-1.25 1.261-1.25 5.75m18-4.557c0 .856.675 1.557 1.5 1.557 1.115 0 1.5 1.176 1.5 4.583 0 5.902 2.368 5.556 2.807-.411.217-2.939.759-4.172 1.834-4.172 3.486 0 .366-2.525-3.469-2.807-3.242-.239-4.172.039-4.172 1.25m-181.61 2.983c-.91 2.371.377 4.765 2.357 4.384 1.107-.213 1.753-1.249 1.753-2.81 0-2.851-3.156-4.059-4.11-1.574M192 211c0 2.333.444 3 2 3s2-.667 2-3-.444-3-2-3-2 .667-2 3" fill="#1976D2" fill-rule="evenodd"/><path fill-opacity=".084" d="M112.23 41.015c-12.526 3.282-22.534 9.216-32.852 19.477-7.816 7.774-9.772 10.426-13.672 18.54-6.174 12.843-8.131 22.304-7.419 35.871.306 5.828 1.288 12.972 2.182 15.875l1.625 5.278 5.203-.655c9.984-1.257 27.433-6.21 41.267-11.715 18.611-7.406 27.254-9.084 43.363-8.421 14.262.587 23.527 2.894 39.042 9.721 5.109 2.249 9.514 3.865 9.787 3.591 2.496-2.496 2.851-22.758.58-33.092-1.654-7.529-1.68-7.568-4.501-6.949-2.07.455-3 .196-3.443-.956-.333-.869-1.431-1.58-2.44-1.58s-2.112-.45-2.452-1c-.34-.55-.029-1.007.691-1.015.951-.011.899-.281-.191-.985-2.89-1.868-.015-.98 3.226.996 5.701 3.476 8.214 1.711 3.19-2.241-1.855-1.459-2.235-2.249-1.348-2.797 2.119-1.31-3.634-9.734-12.967-18.985-9.912-9.826-20.201-15.802-32.724-19.005-10.215-2.612-26.076-2.592-36.147.047m24.27 18.917c-1.1.435-2.675.586-3.5.335-.967-.294-1.11-.155-.404.389.603.464 1.425 2.194 1.828 3.844.402 1.65 1.442 3.787 2.309 4.75 1.442 1.601 1.428 1.75-.168 1.75-.959 0-4.516 2.473-7.905 5.496-3.388 3.022-6.697 5.497-7.353 5.5-.657.002-1.782-.836-2.5-1.862-.719-1.026-2.77-2.187-4.557-2.579-1.788-.393-3.25-1.132-3.25-1.644 0-1.249-7.99-.522-10.8.982-1.233.66-2.682.927-3.221.594-1.026-.634-1.125-.097-1.482 8.013-.121 2.75-.722 6.78-1.335 8.956-.856 3.039-.83 4.136.112 4.734 1.752 1.113 3.726.989 3.726-.234 0-.574.787-.911 1.75-.75.963.162 1.647-.24 1.521-.892-.125-.652.841-3.068 2.149-5.37l2.376-4.184 1.673 2.553c1.285 1.961 1.425 3.017.602 4.554-.589 1.101-1.071 3.516-1.071 5.367 0 4.355-1.517 5.766-6.2 5.766-2.09 0-3.8.422-3.8.938 0 1.555-5.269 6.644-8.972 8.666-3.856 2.106-7.095 5.479-6.377 6.641 1.655 2.677 9.349-1.2 9.349-4.71 0-1.373 2.869-3.537 4.684-3.533.449.001.931 1.617 1.072 3.59.142 1.974.893 4.496 1.67 5.605 1.376 1.965 1.453 1.937 3.019-1.09 1.052-2.035 1.216-3.107.474-3.107-.623 0-.899-.609-.614-1.353.286-.744-.454-2.192-1.643-3.218l-2.162-1.865 5.376-1.203c2.956-.661 6-.962 6.762-.669.763.292 1.944.075 2.625-.483 1.561-1.28 14.891 2.785 14.32 4.368-.261.726 1.947.62 6.765-.323 4.458-.873 11.007-1.247 17.388-.992l10.235.409.61-3.249c.335-1.786.311-4.187-.053-5.335-.484-1.522-.23-2.087.937-2.087 3.274 0 8.569 2.979 9.698 5.458 1.003 2.202.861 2.888-1.018 4.888l-2.185 2.325 4.041 1.211c4.892 1.466 5.999.914 5.999-2.991 0-7.08-4.587-10.952-13.545-11.434-4.02-.216-5.703-.886-8.286-3.299-1.783-1.666-4.238-3.17-5.455-3.343-1.396-.199-2.116-.917-1.948-1.944.158-.966-.621-1.861-1.914-2.2-1.707-.446-1.936-.865-1.052-1.93.839-1.011.839-2.307.002-5.035-1.443-4.701.394-11.683 3.272-12.436 1.059-.277 1.926-.96 1.926-1.518 0-.639 1.577-.753 4.25-.309 11.559 1.923 12.734.99 2.527-2.007-7.64-2.243-9.777-2.486-9.777-1.108 0 .58-.708.181-1.574-.887-.866-1.067-1.321-1.43-1.011-.805.309.625-.332 1.371-1.426 1.657-2.004.524-2.765-.695-1.083-1.735 1.568-.969.029-4.267-2.538-5.436-1.354-.617-2.553-1.09-2.665-1.052-.112.039-1.103.427-2.203.862m50.151 17.536c-.586 1.526 1.032 3.183 2.082 2.132.33-.33.089-.6-.535-.6s-.876-.675-.56-1.5c.317-.825.351-1.5.076-1.5-.275 0-.754.661-1.063 1.468m-54.16.546c-.345.558-2.433 1.936-4.64 3.062-3.804 1.941-3.937 2.161-2.56 4.236 1.74 2.62 4.265 2.892 4.07.438-.076-.963.239-1.75.7-1.75.462 0 1.304.787 1.871 1.75.9 1.526 1.16 1.558 2.034.25 1.273-1.903 1.346-9 .093-9-.518 0-1.223.456-1.568 1.014M190 80c0 .55.477 1 1.059 1s.781-.45.441-1-.816-1-1.059-1-.441.45-.441 1m-9 1c1.958 1.266 3.282 1.266 2.5 0-.34-.55-1.379-.993-2.309-.985-1.457.014-1.484.15-.191.985m-50.258 40.56c-3.717.828-12.942 3.937-20.5 6.909-17.754 6.983-28.554 10.065-42.477 12.122-19.063 2.817-40.814.696-56.574-5.516-6.753-2.661-6.711-1.656.059 1.425 12.196 5.55 22.304 7.692 38.89 8.24 24.035.795 30.666-.608 71.36-15.092 23.922-8.515 43.254-6.916 74.609 6.172 21.536 8.989 24.035 9.682 34.891 9.669 8.071-.009 10.102-.356 13.5-2.309 2.2-1.263 3.1-1.983 2-1.598-14.867 5.198-21.093 4.062-49.369-9.015-21.26-9.832-28.583-11.787-45.631-12.184-9.866-.23-15.996.117-20.758 1.177m7.089 9.463c-7.169 1.21-15.239 3.732-27.768 8.679-6.29 2.483-14.886 5.548-19.102 6.81-25.089 7.509-55.662 7.477-75.74-.081-7.842-2.952-9.03-3.033-3.765-.257 10.752 5.667 29.36 9.815 44.07 9.822 18.254.009 35.007-3.583 57.974-12.43 31.597-12.171 48.34-11.675 83.256 2.467 20.259 8.206 24.479 9.603 31.758 10.512 5.818.727 15.221-.867 18.104-3.069 1.51-1.153.924-1.119-2.966.171-5.801 1.924-15.65 1.441-23.152-1.136-2.75-.944-11.075-4.539-18.5-7.988-7.425-3.449-16.802-7.458-20.838-8.907-13.622-4.894-30.774-6.712-43.331-4.593m4.641 9.966c-9.377 1.309-18.05 3.811-29.472 8.503-23.321 9.579-39.242 12.96-60.5 12.849-16.03-.083-23.881-1.334-36.015-5.739-3.801-1.38-7.046-2.374-7.211-2.209-.738.738 14.037 6.715 21.726 8.79 7.369 1.988 10.895 2.294 26.5 2.305 24.461.016 26.214-.372 67-14.856 25.216-8.955 42.58-7.296 78.131 7.464 16.562 6.877 23.711 8.904 31.401 8.904 5.504 0 14.442-2.339 15.504-4.058.296-.479-1.039-.212-2.967.594-4.632 1.935-15.865 1.862-22.631-.147-2.984-.886-11.503-4.449-18.932-7.919-7.428-3.469-15.964-7.275-18.969-8.458-12.988-5.114-31.624-7.69-43.565-6.023m28.883 44.511c-.003 4.95.166 7.101.376 4.78.209-2.321.212-6.371.005-9-.206-2.629-.378-.73-.381 4.22m-101.012 1c.003 4.4.179 6.076.39 3.724.212-2.352.209-5.952-.006-8s-.388-.124-.384 4.276m30.909-3c.011 2.2.216 2.982.455 1.738.239-1.244.23-3.044-.02-4s-.446.062-.435 2.262m-23.057 1c.02 1.65.244 2.204.498 1.231.254-.973.237-2.323-.037-3-.274-.677-.481.119-.461 1.769m44.963-.5c0 1.375.227 1.938.504 1.25.278-.687.278-1.812 0-2.5-.277-.687-.504-.125-.504 1.25m80.921-.417c.048 1.165.285 1.402.604.605.289-.722.253-1.585-.079-1.917-.332-.332-.568.258-.525 1.312m-157 1c.048 1.165.285 1.402.604.605.289-.722.253-1.585-.079-1.917-.332-.332-.568.258-.525 1.312M180.31 188.5c.005 3.3.192 4.529.415 2.732.222-1.797.218-4.497-.01-6-.229-1.503-.411-.032-.405 3.268m-119.038.5c0 2.475.195 3.488.434 2.25.238-1.238.238-3.262 0-4.5-.239-1.238-.434-.225-.434 2.25m75.679-.276c-.274 2.323-.118 3.843.348 3.377.466-.466.69-2.366.499-4.224-.339-3.294-.36-3.273-.847.847M23.615 204.186c.403.652.622 3.577.486 6.5-.151 3.268.167 5.314.826 5.314.654 0 1.073-2.54 1.073-6.5 0-5.22-.307-6.5-1.559-6.5-.947 0-1.272.465-.826 1.186m168.934-.106c.367.594-.281 1.744-1.441 2.557-2.457 1.721-2.842 6.509-.668 8.313 1.883 1.563 6.667.962 7.554-.95.382-.825 1.215-2.506 1.851-3.736 1.692-3.276 1.433-4.487-.807-3.776-1.302.413-2.555-.069-3.723-1.433-1.823-2.13-3.941-2.876-2.766-.975m45.201 1.312c-1.224.929-1.75 2.722-1.75 5.968V216h4.059c2.451 0 3.814-.396 3.441-1-.34-.55-1.716-1-3.059-1-1.343 0-2.441-.45-2.441-1s1.125-1 2.5-1 2.5-.45 2.5-1-1.125-1-2.5-1-2.5-.45-2.5-1 1.05-1 2.333-1c3.21 0 3.971-1.048 1.901-2.619-2.145-1.629-2.323-1.629-4.484.011M11.352 207.25c.285.688 1.074 2.956 1.753 5.041 1.626 4.988 3.625 4.467 5.902-1.541 1.385-3.655 1.499-4.75.494-4.75-.718 0-1.856 1.463-2.529 3.25l-1.223 3.25-1.019-3.25c-.561-1.787-1.667-3.25-2.458-3.25-.791 0-1.205.563-.92 1.25m25.898.142c1.103.837 1.75 2.675 1.75 4.968 0 2.569.441 3.64 1.5 3.64s1.5-1.071 1.5-3.64c0-2.293.647-4.131 1.75-4.968 1.529-1.161 1.119-1.328-3.25-1.328s-4.779.167-3.25 1.328M48 209.418c0 5.395.835 6.582 4.632 6.582 2.998 0 3.492-.369 4.018-3 .33-1.65.994-3 1.475-3 .481 0 .875-.9.875-2 0-1.333-.667-2-2-2-1.48 0-2 .667-2 2.566 0 1.411-.481 3.465-1.07 4.564-1.539 2.876-3.93.593-3.93-3.752 0-1.858-.45-3.378-1-3.378s-1 1.538-1 3.418m15-.918a7.158 7.158 0 000 5c.769 2.023 1.632 2.5 4.526 2.5 3.135 0 3.755-.427 5.025-3.468 1.678-4.016 1.863-6.532.48-6.532-.532 0-.723.787-.424 1.75.518 1.667.49 1.667-.581 0-.717-1.115-2.386-1.75-4.6-1.75-2.787 0-3.664.495-4.426 2.5m15 2.5c0 5.284 1.616 6.917 2.227 2.25l.361-2.75 1.366 2.75C84.183 217.735 86 216.725 86 211c0-2.75-.45-5-1-5s-1.002 1.463-1.004 3.25l-.003 3.25-1.982-3.25C79.219 204.672 78 205.204 78 211m12.818-2.5c-.856 1.879-.85 3.135.027 5.06.996 2.185 1.716 2.515 4.911 2.25 3.006-.249 3.807-.753 4.064-2.56.269-1.898-.122-2.232-2.5-2.134-1.691.07-2.119.299-1.07.573 2.036.533 2.303 1.894.5 2.557-2.313.85-3.75-.394-3.75-3.246 0-3.175 1.593-4.197 4.336-2.784 2.061 1.062 3.204.466 2.205-1.149-.362-.587-2.217-1.067-4.121-1.067-2.723 0-3.706.534-4.602 2.5M111 211v5h4.059c2.451 0 3.814-.396 3.441-1-.34-.55-1.716-1-3.059-1-2.181 0-2.441-.426-2.441-4 0-2.2-.45-4-1-4s-1 2.25-1 5m13.321-3.25c-.339.963-1.202 3.213-1.918 5-1.109 2.77-1.087 3.25.148 3.25.797 0 1.449-.45 1.449-1s1.125-1 2.5-1 2.5.45 2.5 1 .636 1 1.414 1c1.125 0 .983-1.02-.698-5-2.156-5.101-4.29-6.387-5.395-3.25M135 211c0 2.75.45 5 1 5s1-2.25 1-5-.45-5-1-5-1 2.25-1 5m13 0c0 2.75.45 5 1 5s1.014-1.238 1.032-2.75l.031-2.75 2.052 2.75c3.239 4.341 4.885 3.583 4.885-2.25 0-3.778-.367-5-1.5-5-.963 0-1.51.984-1.527 2.75l-.026 2.75-1.705-2.75c-2.679-4.32-4.242-3.491-4.242 2.25m14.2-3.8c-1.65 1.65-1.509 6.299.235 7.746.789.655 2.926 1.047 4.75.872 2.557-.245 3.388-.833 3.635-2.568.267-1.88-.145-2.247-2.5-2.235-2.157.012-2.469.237-1.328.959 1.159.733 1.224 1.21.292 2.142-1.517 1.517-4.284-.495-4.284-3.116 0-2.775 2.66-4.527 4.524-2.98 1.677 1.392 3.062.737 2.017-.953-.892-1.444-5.854-1.354-7.341.133m12.995 3.55c.302 4.704.339 4.75 3.805 4.75 2.833 0 3.559-.415 3.81-2.177.171-1.198.958-2.716 1.75-3.373 2.251-1.868 1.722-3.95-1.003-3.95-2.158 0-2.478.494-2.75 4.25-.215 2.974-.757 4.25-1.807 4.25-1.05 0-1.592-1.276-1.807-4.25-.17-2.338-.757-4.25-1.305-4.25-.566 0-.866 2.055-.693 4.75M204 211c0 2.75.45 5 1 5s1-2.25 1-5-.45-5-1-5-1 2.25-1 5m13.794.034c2.014 6.299 3.996 6.209 6.41-.292 1.527-4.113 1.561-4.742.253-4.742-.874 0-1.759 1.259-2.107 3-.33 1.65-.958 3-1.396 3-.437 0-1.092-1.35-1.454-3-.362-1.65-1.257-3-1.988-3-1.067 0-1.012.989.282 5.034M229 211c0 2.75.45 5 1 5s1-2.25 1-5-.45-5-1-5-1 2.25-1 5m18-4c0 .55.675 1 1.5 1 1.083 0 1.5 1.111 1.5 4 0 2.533.458 4 1.25 4 .816.001 1.199-1.387 1.102-4-.102-2.749.271-4 1.191-4 .736 0 1.617-.45 1.957-1 .378-.611-1.156-1-3.941-1-2.507 0-4.559.45-4.559 1m-180.75.731c-.687.239-1.25 1.7-1.25 3.245 0 2.832 1.443 4.098 3.75 3.293.688-.239 1.25-1.7 1.25-3.245 0-2.832-1.443-4.098-3.75-3.293M183 208c0 .55.477 1 1.059 1s.781-.45.441-1-.816-1-1.059-1-.441.45-.441 1m9.2.2c-2.848 2.848.264 8.319 3.3 5.8.825-.685 1.5-2 1.5-2.922 0-1.635-1.797-4.078-3-4.078-.33 0-1.14.54-1.8 1.2m-66.562 2.3c-.347.905-.005 1.5.862 1.5s1.209-.595.862-1.5c-.317-.825-.705-1.5-.862-1.5-.157 0-.545.675-.862 1.5M239 218c0 .55.45 1 1 1s1-.45 1-1-.45-1-1-1-1 .45-1 1" fill="#1976D2" fill-rule="evenodd"/><path fill-opacity=".277" d="M118.763 39.964c-32.901 6.017-56.68 31.902-60.271 65.61-.64 6.003.592 18.311 2.567 25.645.911 3.382 1.357 3.78 4.23 3.772 5.279-.015 23.52-4.55 34.211-8.507 5.5-2.035 14.057-5.143 19.016-6.907 8.107-2.883 8.863-3.363 7.5-4.754-2.001-2.043-11.652-5.166-13.134-4.25-.64.395-2.562.794-4.273.887-1.71.092-4.572.251-6.359.354-3.587.205-4.394 2.074-1.25 2.896 2.193.574 2.748 2.281.75 2.305-.884.011-.838.277.16.908 1.176.745 1.198 1.403.128 3.985-.704 1.7-1.651 3.092-2.103 3.092-1.64 0-3.935-4.523-3.935-7.758 0-3.002-.187-3.212-2-2.242-1.1.589-2 1.955-2 3.035 0 1.081-.675 1.965-1.5 1.965s-1.5.675-1.5 1.5c0 1.08-1.105 1.5-3.941 1.5-2.168 0-4.194-.409-4.503-.909-.665-1.076 3.931-5.111 9.196-8.075 2.061-1.16 4.785-3.693 6.052-5.63 1.976-3.022 2.698-3.435 5.09-2.909 3.518.772 4.437-.403 6.002-7.679.921-4.282.944-6.229.093-7.819-1.085-2.027-1.217-1.955-3.061 1.663-1.061 2.079-1.928 4.559-1.928 5.51 0 2.003-1.984 3.621-2.032 1.657-.02-.842-.526-.657-1.418.52-2.155 2.843-5.574.614-5.078-3.31.207-1.63.624-3.365.928-3.857.304-.491.618-4.278.698-8.414.134-6.96.304-7.521 2.274-7.521 1.17 0 3.791-.331 5.823-.736 4.632-.921 13.087.243 12.199 1.68-.419.678.144.793 1.606.329 1.375-.436 2.016-.336 1.649.259-.331.536.226 1.723 1.239 2.639 1.742 1.578 2.204 1.335 8.718-4.567 7.246-6.567 7.613-7.567 4.79-13.031-1.832-3.545-1.812-3.602 1.104-3.045 3.376.646 3.152-.366-.5-2.255-1.65-.853-3-1.93-3-2.392 0-.772 6.628 2.404 20.791 9.962 3.02 1.612 6.232 2.93 7.138 2.93.907 0 3.371.878 5.477 1.952 2.105 1.073 6.716 2.986 10.246 4.25 5.074 1.817 6.585 2.028 7.216 1.009.616-.995 1.458-1.038 3.695-.187 1.593.606 3.226 1.635 3.629 2.289.97 1.572 4.808 1.745 4.808.216 0-1.545-7.28-12.047-11.351-16.376-7.268-7.727-20.133-15.369-32.149-19.097-7.858-2.438-24.018-3.503-31.737-2.092M153 70.825c0 .592.787 1.534 1.75 2.095 2.291 1.334.689 1.385-1.793.057-1.61-.862-1.807-.743-1.247.75.557 1.487.419 1.573-.86.535-2.431-1.973-3.934 2.151-3.62 9.935.218 5.402.609 6.785 2.024 7.157 1.073.282 1.53 1.045 1.178 1.963-.379.987.22 1.743 1.746 2.203 1.277.385 3.672 1.93 5.322 3.432 2.294 2.088 4.17 2.789 7.972 2.979 9.334.465 13.528 4.358 13.528 12.557v5.043l10.919 4.58 10.918 4.58 1.201-8.456c1.229-8.66.421-19.858-2.055-28.485-1.075-3.742-2.983-5.144-2.983-2.191 0 1.004-.445 1.276-1.25.765-.687-.436-1.475-.838-1.75-.892-2.222-.441-6.15-2.615-5.642-3.123.874-.874-4.963-4.309-7.323-4.309-1.054 0-2.231-.508-2.615-1.129-.935-1.513-18.32-9.701-22.279-10.493-1.963-.392-3.141-.225-3.141.447m21.878 5.633c2.958 1.398 5.906 2.542 6.55 2.542.645 0 1.739.563 2.431 1.25 1.009 1.001 1.145.952.682-.25-.317-.825-3.157-2.347-6.309-3.383-8.78-2.883-9.157-2.901-3.354-.159m-45.628 4.217c-4.514 2.628-5.214 4.28-2.699 6.367 1.309 1.087 1.638.951 2.116-.878.614-2.346 2.771-2.882 3.946-.98.867 1.402 2.208-1.454 2.317-4.934.085-2.736-.301-2.708-5.68.425m62.271 2.225c1.423 1.391 3.225 1.739 3.629.7.193-.496-.765-1.071-2.129-1.279-1.589-.242-2.127-.035-1.5.579m-29.466 22.202c1.605 3-.215 8.224-3.11 8.93-1.784.436-.853.789 3.448 1.308 4.805.58 6.236.401 7.75-.969 4.006-3.626 1.221-8.823-5.546-10.349-3.272-.738-3.47-.654-2.542 1.08m-15.786 8.591c.973.254 2.323.237 3-.037.677-.274-.119-.481-1.769-.461-1.65.02-2.204.244-1.231.498m-11.019.996c.963.252 2.537.252 3.5 0 .963-.251.175-.457-1.75-.457s-2.713.206-1.75.457m-5.5.973c.688.278 1.813.278 2.5 0 .688-.277.125-.504-1.25-.504s-1.937.227-1.25.504m6.081 5.361c-7.335 1.238-15.463 3.808-26.831 8.483-33.099 13.612-66.641 16.391-92.493 7.663-7.765-2.621-8.371-2.014-.826.826 14.225 5.354 19.911 6.305 38.319 6.408 19.847.11 30.202-1.631 47.851-8.046 24.209-8.799 29.12-10.354 36.149-11.443 9.526-1.476 24.254-.635 34.135 1.949 4.199 1.098 12.749 4.092 19 6.654 23.675 9.703 29.891 11.651 38.365 12.02 7.638.333 7.729.313 2-.452-9.356-1.25-13.754-2.751-29.588-10.093-18.306-8.489-26.423-11.443-36.923-13.435-8.616-1.634-21.265-1.866-29.158-.534m7.169 10.11c-10.017.846-17.302 2.863-33.771 9.347-31.903 12.559-59.187 15.517-84.31 9.14-5.181-1.316-9.574-2.251-9.763-2.079-.595.542 15.144 5.241 21.888 6.536 8.386 1.609 29.281 1.6 39.456-.017 10.466-1.663 21.741-4.976 37.33-10.967 16.97-6.522 25.213-8.282 38.67-8.26 13.876.023 24.874 2.723 44.713 10.978 21.791 9.067 23.196 9.467 34.287 9.754l10 .26-9.02-.734c-9.525-.775-7.591-.069-41.98-15.322-16.373-7.262-31.409-9.996-47.5-8.636m-7.5 11.524c-3.85.822-11.725 3.313-17.5 5.536-30.112 11.589-38.699 13.677-59.5 14.468-16.864.642-28.321-.814-40.126-5.099-9.477-3.44-9.225-2.42.308 1.251 10.636 4.096 21.7 6.292 34.818 6.911 19.381.916 38.24-2.999 65.913-13.682 14.896-5.751 24.331-7.419 38.087-6.734 13.947.695 19.736 2.248 42.354 11.365 19.715 7.947 28.035 10.36 35.146 10.19 4.391-.104 4.355-.128-1.464-.976-8.232-1.199-13.381-3.039-30.355-10.847-8.075-3.713-17.381-7.676-20.681-8.806-15.271-5.227-32.961-6.573-47-3.577m103.313 2.026c.721.289 1.584.253 1.916-.079.332-.332-.258-.568-1.312-.525-1.165.048-1.402.285-.604.604M11 146c.825.533 1.95.969 2.5.969s.325-.436-.5-.969c-.825-.533-1.95-.969-2.5-.969s-.325.436.5.969m229.813 19.683c.721.289 1.584.253 1.916-.079.332-.332-.258-.568-1.312-.525-1.165.048-1.402.285-.604.604M12.96 210.653c.996 2.624 2.263 4.921 2.815 5.105.553.185 1.73-1.791 2.615-4.389 1.885-5.533 1.863-5.369.721-5.369-.488 0-1.184 1.575-1.545 3.5-.816 4.35-1.998 4.472-3.186.328-.501-1.744-1.432-3.345-2.071-3.558-.742-.248-.507 1.333.651 4.383M24 211c0 2.75.45 5 1 5s1-2.25 1-5-.45-5-1-5-1 2.25-1 5m13.5-4.085c1.424.552 2.173 2.044 2.6 5.18l.6 4.405.15-4.677c.113-3.533.578-4.788 1.9-5.134.962-.251-.275-.478-2.75-.503-3.146-.032-3.898.188-2.5.729m11.868 3.585c.128 4.831.231 5 3.06 5 2.346 0 3.074-.544 3.66-2.737.402-1.505.438-3.755.078-5-.509-1.763-.765-1.27-1.16 2.237-.412 3.665-.877 4.5-2.506 4.5-1.61 0-2.123-.877-2.632-4.5l-.633-4.5.133 5m8.711-2.917c.048 1.165.285 1.402.604.605.289-.722.253-1.585-.079-1.917-.332-.332-.568.258-.525 1.312m6.121-.383c-1.654 1.654-1.507 6.3.245 7.754 1.851 1.537 5.634.989 6.587-.954 2.653-5.405 3.227-7.074 2.636-7.665-.367-.368-.668.151-.668 1.153 0 1.702-.121 1.713-1.829.167-2.148-1.944-5.278-2.148-6.971-.455m13.96 4.05c.11 3.598.287 4.228.563 2 .501-4.035 1.347-4.094 3.618-.25 2.55 4.317 3.659 3.71 3.659-2 0-3.006-.444-5-1.113-5s-.938 1.199-.674 3c.242 1.65.08 3-.361 3-.44 0-1.499-1.35-2.352-3-2.308-4.463-3.52-3.647-3.34 2.25m14.083-4.093c-1.688 1.688-1.571 6.326.197 7.793 2.378 1.974 7.009.907 7.38-1.7.253-1.782-.164-2.247-2-2.235-1.843.012-2.014.209-.828.959 1.205.762 1.248 1.186.222 2.212-1.634 1.634-4.589-.061-5.012-2.876-.455-3.029 2.439-5.015 4.988-3.423 1.659 1.036 1.948 1.025 1.592-.061-.584-1.775-4.983-2.225-6.539-.669M111 211v5l3.75-.15c3.016-.12 3.212-.231 1-.566-2.524-.383-2.75-.781-2.75-4.85 0-2.439-.45-4.434-1-4.434s-1 2.25-1 5m12.594-.322c-1.911 5.608-1.952 6.08-.394 4.522 1.574-1.574 5.511-1.542 6.08.05.245.688.737.983 1.093.657.989-.908-2.64-9.907-3.995-9.907-.654 0-1.907 2.105-2.784 4.678M135 211c0 2.75.45 5 1 5s1-2.25 1-5-.45-5-1-5-1 2.25-1 5m13 0c0 5.532 1.69 6.884 2.189 1.75l.316-3.25 1.773 3.25c2.554 4.68 3.745 4.011 3.562-2-.11-3.598-.287-4.228-.563-2-.5 4.028-1.296 4.084-3.48.244C149.303 204.612 148 205.3 148 211m14.2-3.8c-1.652 1.652-1.508 6.299.24 7.75 2.378 1.974 7.009.907 7.38-1.7.256-1.803-.141-2.227-2-2.134-1.695.085-1.848.239-.57.573 2.34.612 2.218 2.028-.241 2.808-2.825.897-4.009-.163-4.009-3.587 0-3.372 2.235-4.79 4.537-2.879 1.667 1.383 3.045.72 2.004-.964-.892-1.444-5.854-1.354-7.341.133m12.995 3.55c.302 4.704.339 4.75 3.805 4.75s3.503-.046 3.805-4.75c.173-2.695-.127-4.75-.693-4.75-.548 0-1.135 1.912-1.305 4.25-.215 2.974-.757 4.25-1.807 4.25-1.05 0-1.592-1.276-1.807-4.25-.17-2.338-.757-4.25-1.305-4.25-.566 0-.866 2.055-.693 4.75m9.234-2.823c0 1.059.353 1.708.785 1.441.432-.268.786-1.134.786-1.927 0-.793-.354-1.441-.786-1.441-.432 0-.785.867-.785 1.927m5.389.573c-1.761 3.865.278 7.5 4.209 7.5 2.494 0 3.317-.589 4.39-3.141 1.139-2.708 1.102-3.398-.27-5-2.376-2.775-6.932-2.424-8.329.641M199 207c0 .55.45 1 1 1s1-.45 1-1-.45-1-1-1-1 .45-1 1m5 4c0 2.75.45 5 1 5s1-2.25 1-5-.45-5-1-5-1 2.25-1 5m13.362-2.693c1.145 4.56 2.561 7.693 3.477 7.693 1.105 0 4.589-8.906 3.795-9.699-.57-.57-2.634 3.947-2.634 5.764 0 2.229-1.9.667-2.497-2.054-.361-1.643-1.138-3.285-1.726-3.649-.71-.439-.849.213-.415 1.945M229 211c0 2.75.45 5 1 5s1-2.25 1-5-.45-5-1-5-1 2.25-1 5m7 0v5l4.25-.132 4.25-.131-3.5-.619c-4.384-.774-4.692-3.362-.5-4.194l3-.595-2.781-.414c-3.722-.555-3.813-2.263-.162-3.047 2.8-.601 2.761-.637-.807-.75L236 206v5m12.25-4.311c1.334.349 1.75 1.509 1.75 4.884 0 2.435.45 4.427 1 4.427s1-1.992 1-4.427c0-3.375.416-4.535 1.75-4.884.963-.251-.275-.457-2.75-.457s-3.713.206-2.75.457m-183.21 1.763c-2.648 3.19 1.259 8.205 4.376 5.618 1.881-1.562 2.054-4.2.384-5.87-1.603-1.603-3.295-1.514-4.76.252m126.669-.828c-1.197 1.197-.787 5.067.664 6.271 2.381 1.976 4.77.211 4.431-3.273-.22-2.255-.871-3.203-2.345-3.414-1.123-.161-2.36.027-2.75.416m-66.07 2.07c-1.126 1.126-.685 2.306.861 2.306.825 0 1.5-.423 1.5-.941 0-1.261-1.562-2.164-2.361-1.365M239 218c0 .55.477 1 1.059 1s.781-.45.441-1-.816-1-1.059-1-.441.45-.441 1" fill="#1976D2" fill-rule="evenodd"/></svg>